# xmcd
#
# Track frame offsets:
#	150
#	17653
#	33603
#
# Disc length: 682 seconds
#
# Revision: 0
# Processed by: cddbd v1.5.2PL0 Copyright (c) Steve Scherf et al.
# Submitted via: dBpowerAMP V4.0
#
DISCID=1c02a803
DTITLE=Bubba Sparxxx - Back In The Mud [Maxi]
DYEAR=1900
DGENRE=
TTITLE0=Back In The Mud [Radio Edit]
TTITLE1=Back In The Mud [RMX]
TTITLE2=Back In The Mud [Urban RMX]
EXTD=http://www.YoYoFreaks.com\ndrink coca cola!
EXTT0=
EXTT1=
EXTT2=
PLAYORDER=
